<svg xmlns="http://www.w3.org/2000/svg" xmlns:xlink="http://www.w3.org/1999/xlink" width="200" zoomAndPan="magnify" viewBox="0 0 150 149.999998" height="200" preserveAspectRatio="xMidYMid meet" version="1.0"><defs><clipPath id="40ac0f362a"><path d="M 138 15 L 146.316406 15 L 146.316406 24 L 138 24 Z M 138 15 " clip-rule="nonzero"/></clipPath><clipPath id="b20c8fe8ea"><path d="M 3.816406 7 L 123 7 L 123 150 L 3.816406 150 Z M 3.816406 7 " clip-rule="nonzero"/></clipPath></defs><path fill="#ffffff" d="M 114.492188 15.785156 L 122.339844 15.785156 L 122.339844 23.71875 L 114.492188 23.71875 Z M 114.492188 15.785156 " fill-opacity="1" fill-rule="nonzero"/><path fill="#ffffff" d="M 51.347656 47.441406 L 59.195312 47.441406 L 59.195312 55.292969 L 51.347656 55.292969 Z M 51.347656 47.441406 " fill-opacity="1" fill-rule="nonzero"/><path fill="#ffffff" d="M 43.421875 118.433594 L 51.34375 118.433594 L 51.34375 126.363281 L 43.421875 126.363281 Z M 43.421875 118.433594 " fill-opacity="1" fill-rule="nonzero"/><path fill="#ffffff" d="M 43.421875 55.289062 L 51.34375 55.289062 L 51.34375 63.21875 L 43.421875 63.21875 Z M 43.421875 55.289062 " fill-opacity="1" fill-rule="nonzero"/><path fill="#ffffff" d="M 35.5 118.433594 L 43.421875 118.433594 L 43.421875 102.648438 L 35.5 102.648438 Z M 35.5 118.433594 " fill-opacity="1" fill-rule="nonzero"/><path fill="#ffffff" d="M 35.5 71.078125 L 35.5 79.011719 L 43.421875 79.011719 L 43.421875 63.226562 L 35.5 63.226562 Z M 35.5 71.078125 " fill-opacity="1" fill-rule="nonzero"/><path fill="#ffffff" d="M 27.65625 86.863281 L 27.65625 102.648438 L 35.5 102.648438 L 35.5 79.011719 L 27.65625 79.011719 Z M 27.65625 86.863281 " fill-opacity="1" fill-rule="nonzero"/><g clip-path="url(#40ac0f362a)"><path fill="#ffeb24" d="M 138.183594 15.785156 L 146.027344 15.785156 L 146.027344 23.71875 L 138.183594 23.71875 Z M 138.183594 15.785156 " fill-opacity="1" fill-rule="nonzero"/></g><path fill="#ffeb24" d="M 130.261719 31.574219 L 138.183594 31.574219 L 138.183594 39.507812 L 130.261719 39.507812 Z M 130.261719 31.574219 " fill-opacity="1" fill-rule="nonzero"/><path fill="#ffeb24" d="M 130.261719 0 L 138.183594 0 L 138.183594 7.933594 L 130.261719 7.933594 Z M 130.261719 0 " fill-opacity="1" fill-rule="nonzero"/><path fill="#ffeb24" d="M 122.339844 15.785156 L 130.261719 15.785156 L 130.261719 23.71875 L 122.339844 23.71875 Z M 122.339844 15.785156 " fill-opacity="1" fill-rule="nonzero"/><path fill="#ffeb24" d="M 114.492188 23.71875 L 122.339844 23.71875 L 122.339844 31.574219 L 114.492188 31.574219 Z M 114.492188 23.71875 " fill-opacity="1" fill-rule="nonzero"/><path fill="#ffeb24" d="M 114.492188 7.933594 L 122.339844 7.933594 L 122.339844 15.789062 L 114.492188 15.789062 Z M 114.492188 7.933594 " fill-opacity="1" fill-rule="nonzero"/><path fill="#ffeb24" d="M 106.574219 15.785156 L 114.492188 15.785156 L 114.492188 23.71875 L 106.574219 23.71875 Z M 106.574219 15.785156 " fill-opacity="1" fill-rule="nonzero"/><path fill="#ffeb24" d="M 98.644531 7.933594 L 106.566406 7.933594 L 106.566406 15.789062 L 98.644531 15.789062 Z M 98.644531 7.933594 " fill-opacity="1" fill-rule="nonzero"/><path fill="#ffeb24" d="M 90.804688 0 L 67.113281 0 L 67.113281 7.933594 L 98.644531 7.933594 L 98.644531 0 Z M 90.804688 0 " fill-opacity="1" fill-rule="nonzero"/><g clip-path="url(#b20c8fe8ea)"><path fill="#ffeb24" d="M 59.191406 15.785156 L 51.34375 15.785156 L 51.34375 31.574219 L 43.421875 31.574219 L 43.421875 39.507812 L 27.65625 39.507812 L 27.65625 47.441406 L 19.734375 47.441406 L 19.734375 55.292969 L 11.8125 55.292969 L 11.8125 71.078125 L 3.96875 71.078125 L 3.96875 110.582031 L 11.8125 110.582031 L 11.8125 126.363281 L 19.734375 126.363281 L 19.734375 134.21875 L 27.65625 134.21875 L 27.65625 142.148438 L 43.421875 142.148438 L 43.421875 150.003906 L 82.878906 150.003906 L 82.878906 142.148438 L 98.644531 142.148438 L 98.644531 134.21875 L 106.566406 134.21875 L 106.566406 126.363281 L 114.488281 126.363281 L 114.488281 110.582031 L 122.335938 110.582031 L 122.335938 71.078125 L 114.492188 71.078125 L 114.492188 55.292969 L 106.574219 55.292969 L 106.574219 47.441406 L 98.652344 47.441406 L 98.652344 39.503906 L 82.882812 39.503906 L 82.882812 31.574219 L 74.960938 31.574219 L 74.960938 15.785156 L 67.117188 15.785156 L 67.117188 7.933594 L 59.195312 7.933594 L 59.195312 15.785156 Z M 35.5 118.433594 L 35.5 102.648438 L 27.65625 102.648438 L 27.65625 79.011719 L 35.5 79.011719 L 35.5 63.226562 L 43.421875 63.226562 L 43.421875 55.292969 L 51.34375 55.292969 L 51.34375 47.441406 L 59.191406 47.441406 L 59.191406 55.292969 L 51.34375 55.292969 L 51.34375 63.226562 L 43.421875 63.226562 L 43.421875 79.011719 L 35.5 79.011719 L 35.5 102.648438 L 43.421875 102.648438 L 43.421875 118.433594 L 51.34375 118.433594 L 51.34375 126.363281 L 43.421875 126.363281 L 43.421875 118.433594 Z M 67.113281 31.574219 L 59.191406 31.574219 L 59.191406 23.71875 L 67.113281 23.71875 Z M 67.113281 31.574219 " fill-opacity="1" fill-rule="nonzero"/></g></svg>