<svg xmlns="http://www.w3.org/2000/svg" xmlns:xlink="http://www.w3.org/1999/xlink" width="200" zoomAndPan="magnify" viewBox="0 0 150 149.999998" height="200" preserveAspectRatio="xMidYMid meet" version="1.0"><defs><clipPath id="a68aab6021"><path d="M 0 11.863281 L 150 11.863281 L 150 137.863281 L 0 137.863281 Z M 0 11.863281 " clip-rule="nonzero"/></clipPath></defs><path fill="#ffffff" d="M 39.46875 35.5 L 31.625 35.5 L 31.625 43.433594 L 23.703125 43.433594 L 23.703125 59.214844 L 31.625 59.214844 L 31.625 51.285156 L 39.46875 51.285156 L 39.46875 43.433594 L 47.386719 43.433594 L 47.386719 35.5 Z M 39.46875 35.5 " fill-opacity="1" fill-rule="nonzero"/><g clip-path="url(#a68aab6021)"><path fill="#ffeb24" d="M 142.132812 35.5 L 142.132812 27.644531 L 134.210938 27.644531 L 134.210938 19.714844 L 126.285156 19.714844 L 126.285156 11.863281 L 94.761719 11.863281 L 94.761719 19.714844 L 86.835938 19.714844 L 86.835938 27.644531 L 78.992188 27.644531 L 78.992188 35.496094 L 71.070312 35.496094 L 71.070312 27.644531 L 63.148438 27.644531 L 63.148438 19.714844 L 55.3125 19.714844 L 55.3125 11.863281 L 23.703125 11.863281 L 23.703125 19.714844 L 15.859375 19.714844 L 15.859375 27.644531 L 7.941406 27.644531 L 7.941406 35.496094 L 0.015625 35.496094 L 0.015625 67.0625 L 7.941406 67.0625 L 7.941406 74.996094 L 15.863281 74.996094 L 15.863281 82.84375 L 23.707031 82.84375 L 23.707031 90.777344 L 31.628906 90.777344 L 31.628906 98.628906 L 39.472656 98.628906 L 39.472656 106.558594 L 47.394531 106.558594 L 47.394531 114.410156 L 55.320312 114.410156 L 55.320312 122.34375 L 63.164062 122.34375 L 63.164062 130.195312 L 71.085938 130.195312 L 71.085938 138.125 L 79.011719 138.125 L 79.011719 130.195312 L 86.851562 130.195312 L 86.851562 122.34375 L 94.777344 122.34375 L 94.777344 114.410156 L 102.699219 114.410156 L 102.699219 106.558594 L 110.542969 106.558594 L 110.542969 98.636719 L 118.46875 98.636719 L 118.46875 90.785156 L 126.308594 90.785156 L 126.308594 82.851562 L 134.234375 82.851562 L 134.234375 75.003906 L 142.15625 75.003906 L 142.15625 67.070312 L 150 67.070312 L 150 35.5 Z M 31.625 43.433594 L 31.625 35.5 L 47.390625 35.5 L 47.390625 43.433594 L 39.46875 43.433594 L 39.46875 51.285156 L 31.625 51.285156 L 31.625 59.214844 L 23.703125 59.214844 L 23.703125 43.433594 Z M 31.625 43.433594 " fill-opacity="1" fill-rule="nonzero"/></g></svg>