<svg xmlns="http://www.w3.org/2000/svg" xmlns:xlink="http://www.w3.org/1999/xlink" width="200" zoomAndPan="magnify" viewBox="0 0 150 149.999998" height="200" preserveAspectRatio="xMidYMid meet" version="1.0"><defs><clipPath id="bc294b31c7"><path d="M 0 8.046875 L 150 8.046875 L 150 142 L 0 142 Z M 0 8.046875 " clip-rule="nonzero"/></clipPath></defs><path fill="#22c55e" d="M 147.316406 86.632812 L 147.316406 115.160156 L 144.617188 120.527344 L 141.949219 123.195312 L 136.609375 123.195312 L 133.910156 120.527344 L 131.242188 117.859375 L 131.242188 96.410156 L 128.570312 93.742188 L 125.871094 91.070312 L 123.203125 93.742188 L 120.53125 96.410156 L 120.53125 115.160156 L 117.863281 120.527344 L 113.722656 122.175781 L 105.925781 124.007812 L 104.457031 129.976562 L 101.785156 136.605469 L 99.117188 140.503906 L 89.726562 140.503906 L 85.707031 136.605469 L 83.039062 133.90625 L 85.707031 125.894531 L 88.378906 123.195312 L 104.457031 123.195312 L 104.457031 113.476562 L 101.785156 109.820312 L 100.136719 107.148438 L 49.863281 107.148438 L 48.214844 109.820312 L 45.542969 113.476562 L 45.542969 123.195312 L 61.621094 123.195312 L 64.292969 125.894531 L 66.960938 133.90625 L 64.292969 136.605469 L 60.273438 140.503906 L 50.882812 140.503906 L 48.214844 136.605469 L 45.542969 129.976562 L 44.074219 124.007812 L 36.277344 122.175781 L 32.136719 120.527344 L 29.46875 115.160156 L 29.46875 96.410156 L 26.796875 93.742188 L 24.128906 91.070312 L 21.429688 93.742188 L 18.757812 96.410156 L 18.757812 117.859375 L 16.089844 120.527344 L 13.390625 123.195312 L 8.050781 123.195312 L 5.382812 120.527344 L 2.683594 115.160156 L 2.683594 86.632812 L 5.382812 83.035156 L 12.128906 80.363281 L 16.089844 77.664062 L 21.429688 66.957031 L 26.796875 61.617188 L 32.136719 50.910156 L 34.835938 45.539062 L 37.507812 34.832031 L 38.855469 29.460938 L 36.636719 26.792969 L 32.136719 24.121094 L 29.46875 20.582031 L 29.46875 16.085938 L 32.136719 13.414062 L 36.457031 10.714844 L 42.875 13.414062 L 45.542969 16.953125 L 42.875 24.121094 L 41.34375 28.382812 L 41.886719 31.292969 L 48.214844 34.832031 L 53.582031 45.539062 L 55.503906 47.429688 L 75 48.210938 L 94.496094 47.429688 L 96.417969 45.539062 L 101.785156 34.832031 L 108.113281 31.292969 L 108.65625 28.382812 L 107.125 24.121094 L 104.457031 16.953125 L 107.125 13.414062 L 113.542969 10.714844 L 117.863281 13.414062 L 120.53125 16.085938 L 120.53125 20.582031 L 117.863281 24.121094 L 113.363281 26.792969 L 111.144531 29.460938 L 112.492188 34.832031 L 115.164062 45.539062 L 117.863281 50.910156 L 123.203125 61.617188 L 128.570312 66.957031 L 133.910156 77.664062 L 137.871094 80.363281 L 144.617188 83.035156 Z M 147.316406 86.632812 " fill-opacity="1" fill-rule="nonzero"/><path fill="#22c55e" d="M 37.507812 34.832031 L 42.875 34.832031 L 42.875 50.910156 L 37.507812 50.910156 Z M 37.507812 13.414062 L 32.136719 13.414062 L 32.136719 18.785156 L 37.507812 18.785156 Z M 32.136719 56.246094 L 32.136719 61.617188 L 26.796875 61.617188 L 26.796875 66.957031 L 21.429688 66.957031 L 21.429688 72.324219 L 26.796875 72.324219 L 26.796875 66.984375 L 32.167969 66.984375 L 32.167969 61.617188 L 37.507812 61.617188 L 37.507812 50.910156 L 32.136719 50.910156 Z M 107.125 13.414062 L 107.125 18.785156 L 112.492188 18.785156 L 112.492188 13.414062 Z M 107.125 13.414062 " fill-opacity="1" fill-rule="nonzero"/><g clip-path="url(#bc294b31c7)"><path fill="#020a0a" d="M 48.214844 61.617188 L 53.582031 61.617188 L 53.582031 83.035156 L 48.214844 83.035156 Z M 96.417969 66.957031 L 96.417969 83.035156 L 101.785156 83.035156 L 101.785156 61.617188 L 96.417969 61.617188 Z M 42.875 13.414062 L 42.875 8.046875 L 32.136719 8.046875 L 32.136719 13.414062 Z M 42.875 24.121094 L 48.214844 24.121094 L 48.214844 13.414062 L 42.875 13.414062 Z M 32.136719 13.414062 L 26.796875 13.414062 L 26.796875 24.121094 L 32.136719 24.121094 L 32.136719 18.753906 C 32.136719 18.753906 32.136719 13.414062 32.136719 13.414062 Z M 48.214844 34.832031 L 48.214844 29.460938 L 42.875 29.460938 L 42.875 24.121094 L 32.136719 24.121094 L 32.136719 29.460938 L 37.507812 29.460938 L 37.507812 34.832031 L 42.875 34.832031 C 42.875 34.832031 48.214844 34.832031 48.214844 34.832031 Z M 48.214844 45.539062 L 53.582031 45.539062 L 53.582031 34.832031 L 48.214844 34.832031 Z M 37.507812 45.539062 L 37.507812 34.832031 L 32.136719 34.832031 L 32.136719 50.910156 L 37.507812 50.910156 Z M 32.136719 56.246094 L 32.136719 50.910156 L 26.796875 50.910156 L 26.796875 61.617188 L 32.136719 61.617188 C 32.136719 61.617188 32.136719 56.246094 32.136719 56.246094 Z M 21.429688 72.324219 L 21.429688 66.984375 L 26.796875 66.984375 L 26.796875 61.617188 L 21.429688 61.617188 L 21.429688 66.957031 L 16.089844 66.957031 L 16.089844 77.664062 L 21.429688 77.664062 C 21.429688 77.664062 21.429688 72.324219 21.429688 72.324219 Z M 58.921875 50.910156 L 96.417969 50.910156 L 96.417969 45.539062 L 53.582031 45.539062 L 53.582031 50.910156 Z M 16.089844 83.035156 L 16.089844 77.664062 L 5.382812 77.664062 L 5.382812 83.035156 Z M 5.382812 109.820312 L 5.382812 83.035156 L 0.0117188 83.035156 L 0.0117188 120.527344 L 5.382812 120.527344 Z M 32.136719 109.820312 L 32.136719 93.742188 L 26.796875 93.742188 L 26.796875 88.402344 L 21.429688 88.402344 L 21.429688 93.742188 L 16.089844 93.742188 L 16.089844 120.527344 L 21.429688 120.527344 L 21.429688 93.773438 L 26.796875 93.773438 L 26.796875 120.527344 L 32.136719 120.527344 L 32.136719 115.160156 C 32.136719 115.160156 32.136719 109.820312 32.136719 109.820312 Z M 5.382812 120.527344 L 5.382812 125.894531 L 16.089844 125.894531 L 16.089844 120.527344 Z M 42.875 115.160156 L 42.875 120.527344 L 32.136719 120.527344 L 32.136719 125.894531 L 42.875 125.894531 L 42.875 136.605469 L 48.214844 136.605469 L 48.214844 125.894531 L 64.292969 125.894531 L 64.292969 120.527344 L 48.214844 120.527344 L 48.214844 109.820312 L 42.875 109.820312 Z M 64.292969 136.605469 L 69.632812 136.605469 L 69.632812 125.894531 L 64.292969 125.894531 Z M 53.582031 136.605469 L 48.214844 136.605469 L 48.214844 141.945312 L 64.292969 141.945312 L 64.292969 136.605469 Z M 117.863281 13.414062 L 117.863281 8.046875 L 107.125 8.046875 L 107.125 13.414062 Z M 117.863281 24.121094 L 123.203125 24.121094 L 123.203125 13.414062 L 117.863281 13.414062 Z M 107.125 13.414062 L 101.785156 13.414062 L 101.785156 24.121094 L 107.125 24.121094 Z M 112.492188 34.832031 L 112.492188 29.460938 L 117.863281 29.460938 L 117.863281 24.121094 L 107.125 24.121094 L 107.125 29.460938 L 101.785156 29.460938 L 101.785156 34.832031 L 107.125 34.832031 C 107.125 34.832031 112.492188 34.832031 112.492188 34.832031 Z M 112.492188 45.539062 L 112.492188 50.910156 L 117.863281 50.910156 L 117.863281 34.832031 L 112.492188 34.832031 Z M 101.785156 40.171875 L 101.785156 34.832031 L 96.417969 34.832031 L 96.417969 45.539062 L 101.785156 45.539062 Z M 117.863281 61.617188 L 123.203125 61.617188 L 123.203125 50.910156 L 117.863281 50.910156 Z M 128.570312 66.984375 L 128.570312 77.664062 L 133.910156 77.664062 L 133.910156 66.957031 L 128.570312 66.984375 L 128.570312 61.617188 L 123.203125 61.617188 L 123.203125 66.984375 Z M 139.28125 83.035156 L 144.617188 83.035156 L 144.617188 77.664062 L 133.910156 77.664062 L 133.910156 83.035156 Z M 144.617188 83.035156 L 144.617188 120.527344 L 149.988281 120.527344 L 149.988281 83.035156 Z M 133.910156 109.820312 L 133.910156 93.742188 L 128.570312 93.742188 L 128.570312 88.402344 L 123.203125 88.402344 L 123.203125 93.742188 L 117.863281 93.742188 L 117.863281 120.527344 L 123.203125 120.527344 L 123.203125 93.773438 L 128.570312 93.773438 L 128.570312 120.527344 L 133.910156 120.527344 Z M 133.910156 120.527344 L 133.910156 125.894531 L 144.617188 125.894531 L 144.617188 120.527344 Z M 107.125 120.527344 L 107.125 109.820312 L 101.785156 109.820312 L 101.785156 120.527344 L 85.707031 120.527344 L 85.707031 125.894531 L 101.785156 125.894531 L 101.785156 136.605469 L 107.125 136.605469 L 107.125 125.894531 L 117.863281 125.894531 L 117.863281 120.527344 Z M 96.417969 104.449219 L 48.214844 104.449219 L 48.214844 109.820312 L 101.785156 109.820312 L 101.785156 104.449219 Z M 85.707031 125.894531 L 80.367188 125.894531 L 80.367188 136.605469 L 85.707031 136.605469 Z M 91.078125 136.605469 L 85.707031 136.605469 L 85.707031 141.945312 L 101.785156 141.945312 L 101.785156 136.605469 Z M 91.078125 136.605469 " fill-opacity="1" fill-rule="nonzero"/></g></svg>