<svg xmlns="http://www.w3.org/2000/svg" xmlns:xlink="http://www.w3.org/1999/xlink" width="200" zoomAndPan="magnify" viewBox="0 0 150 149.999998" height="200" preserveAspectRatio="xMidYMid meet" version="1.0"><defs><clipPath id="b28f82013d"><path d="M 113 33 L 119.976562 33 L 119.976562 70 L 113 70 Z M 113 33 " clip-rule="nonzero"/></clipPath><clipPath id="e26dc761ec"><path d="M 29.976562 33 L 37 33 L 37 70 L 29.976562 70 Z M 29.976562 33 " clip-rule="nonzero"/></clipPath><clipPath id="822af65ba3"><path d="M 52 103 L 98 103 L 98 137.25 L 52 137.25 Z M 52 103 " clip-rule="nonzero"/></clipPath></defs><path fill="#ffeb24" d="M 65.636719 1.207031 C 60.511719 1.21875 56.980469 2.976562 52.589844 4.898438 C 49.9375 6.058594 49.628906 7.082031 48.136719 9.699219 C 46.796875 12.039062 44.882812 14.234375 43.222656 16.25 C 40.1875 19.9375 37.515625 22.617188 35.675781 26.867188 C 33.46875 31.957031 32.140625 36.132812 31.601562 41.785156 C 31.230469 45.664062 30.933594 49.757812 31.15625 53.671875 C 31.253906 55.34375 32.234375 60.636719 34.121094 60.707031 C 34.4375 63.277344 34.511719 65.828125 35.722656 67.847656 C 36.605469 69.316406 38.03125 71.050781 38.847656 72.203125 C 40.132812 74.03125 40.660156 75.382812 41.402344 77.410156 C 42.039062 79.148438 43.453125 80.0625 44.402344 81.851562 C 44.65625 82.328125 44.300781 82.84375 44.644531 83.355469 C 44.917969 83.761719 45.621094 83.601562 45.90625 83.910156 C 46.632812 84.703125 47.246094 84.886719 47.710938 86.09375 C 48.457031 88.035156 48.695312 89.113281 49.710938 90.835938 C 50.703125 92.527344 52.175781 94.132812 53.160156 95.703125 C 54.265625 97.472656 52.910156 100.789062 54.082031 102.203125 C 54.125 102.335938 54.160156 102.46875 54.1875 102.597656 C 55.785156 102.746094 57.386719 102.671875 59 102.597656 C 60.882812 102.507812 62.777344 102.421875 64.695312 102.6875 C 68.894531 103.265625 71.949219 102.179688 76.085938 102.144531 C 77.414062 102.132812 78.671875 102.175781 79.910156 102.21875 C 82.121094 102.292969 84.261719 102.367188 86.59375 102.136719 C 87.828125 102.015625 89.160156 102.152344 90.480469 102.285156 C 92.007812 102.441406 93.515625 102.597656 94.832031 102.355469 C 95.074219 100.546875 94.792969 98.023438 95.675781 96.402344 C 96.578125 94.75 98.324219 94.0625 99.421875 92.394531 C 101.457031 89.300781 103.75 85.980469 105.542969 82.847656 C 107.464844 79.496094 109.316406 76.347656 111.421875 72.78125 C 112.320312 71.253906 113.621094 70.25 114.367188 68.671875 C 115.320312 66.648438 115.519531 63.785156 116.410156 61.65625 C 117.585938 58.839844 117.269531 55.808594 117.851562 52.707031 C 118.496094 49.253906 118.847656 46.246094 118.855469 42.617188 C 118.863281 38.71875 116.960938 28.699219 113.40625 26.660156 C 113.203125 25.160156 112.058594 24.285156 111.550781 22.953125 C 111.035156 21.621094 111.316406 20.0625 110.546875 18.785156 C 109.28125 16.675781 106.195312 15.316406 104.238281 13.707031 C 103.222656 12.875 101.609375 11.90625 101.046875 10.710938 C 100.570312 9.695312 101.242188 8.441406 100.878906 7.441406 C 100.15625 5.460938 98.207031 5.640625 96.5625 5.015625 C 94.707031 4.304688 93.402344 3.144531 91.644531 2.417969 C 88.601562 1.160156 86.816406 0.707031 83.472656 0.707031 C 80.671875 0.707031 77.917969 0.878906 75.132812 0.957031 C 72.820312 1.019531 71.09375 1.761719 68.886719 1.710938 C 67.800781 1.683594 67.078125 1.046875 65.886719 1.207031 L 65.636719 1.207031 " fill-opacity="1" fill-rule="nonzero"/><path fill="#ffeb24" d="M 53.558594 101.472656 L 53.558594 104.6875 L 95.359375 104.6875 L 95.359375 101.472656 L 53.558594 101.472656 " fill-opacity="1" fill-rule="nonzero"/><path fill="#ffeb24" d="M 49.984375 69.316406 L 46.769531 69.316406 L 46.769531 65.742188 L 43.554688 65.742188 L 43.554688 51.453125 L 40.339844 51.453125 L 40.339844 30.371094 L 43.554688 30.371094 L 43.554688 23.941406 L 46.769531 23.941406 L 46.769531 34.300781 L 43.554688 34.300781 L 43.554688 47.878906 L 46.769531 47.878906 L 46.769531 61.8125 L 49.984375 61.8125 L 49.984375 69.316406 " fill-opacity="1" fill-rule="nonzero"/><path fill="#ffeb24" d="M 59.988281 87.179688 L 56.773438 87.179688 L 56.773438 83.25 L 53.558594 83.25 L 53.558594 79.320312 L 50.34375 79.320312 L 50.34375 65.742188 L 53.558594 65.742188 L 53.558594 75.746094 L 56.773438 75.746094 L 56.773438 79.675781 L 59.988281 79.675781 L 59.988281 87.179688 " fill-opacity="1" fill-rule="nonzero"/><g clip-path="url(#b28f82013d)"><path fill="#ffeb24" d="M 120.011719 33.945312 L 120.011719 62.171875 L 116.796875 62.171875 L 116.796875 69.671875 L 113.582031 69.671875 L 113.582031 58.242188 L 116.796875 58.242188 L 116.796875 33.945312 L 120.011719 33.945312 " fill-opacity="1" fill-rule="nonzero"/></g><path fill="#ffeb24" d="M 116.796875 33.945312 L 116.796875 34.300781 L 113.582031 34.300781 L 113.582031 27.515625 L 110.367188 27.515625 L 110.367188 20.367188 L 106.078125 20.367188 L 106.078125 17.511719 L 102.863281 17.511719 L 102.863281 13.9375 L 99.648438 13.9375 L 99.648438 6.433594 L 102.863281 6.433594 L 102.863281 10.007812 L 106.078125 10.007812 L 106.078125 13.9375 L 110.367188 13.9375 L 110.367188 17.152344 L 113.582031 17.152344 L 113.582031 23.941406 L 116.796875 23.941406 L 116.796875 33.945312 " fill-opacity="1" fill-rule="nonzero"/><path fill="#ffeb24" d="M 113.582031 69.671875 L 113.582031 75.390625 L 110.367188 75.390625 L 110.367188 79.675781 L 107.148438 79.675781 L 107.148438 72.175781 L 110.367188 72.175781 L 110.367188 68.601562 L 113.582031 68.601562 L 113.582031 69.671875 " fill-opacity="1" fill-rule="nonzero"/><path fill="#ffeb24" d="M 107.148438 79.675781 L 107.148438 86.464844 L 103.933594 86.464844 L 103.933594 90.039062 L 100.71875 90.039062 L 100.71875 82.894531 L 103.933594 82.894531 L 103.933594 79.320312 L 107.148438 79.320312 L 107.148438 79.675781 " fill-opacity="1" fill-rule="nonzero"/><path fill="#ffeb24" d="M 100.71875 90.039062 L 100.71875 97.542969 L 97.503906 97.542969 L 97.503906 104.6875 L 94.289062 104.6875 L 94.289062 93.253906 L 97.503906 93.253906 L 97.503906 90.039062 L 100.71875 90.039062 " fill-opacity="1" fill-rule="nonzero"/><path fill="#ffeb24" d="M 100.363281 3.21875 L 100.363281 6.433594 L 92.859375 6.433594 L 92.859375 3.21875 L 57.128906 3.21875 L 57.128906 6.433594 L 49.628906 6.433594 L 49.628906 3.21875 L 54.273438 3.21875 L 54.273438 0.00390625 L 95.71875 0.00390625 L 95.71875 3.21875 L 100.363281 3.21875 " fill-opacity="1" fill-rule="nonzero"/><path fill="#ffeb24" d="M 55.703125 93.253906 L 55.703125 104.6875 L 52.484375 104.6875 L 52.484375 97.542969 L 49.269531 97.542969 L 49.269531 90.039062 L 52.484375 90.039062 L 52.484375 93.253906 L 55.703125 93.253906 " fill-opacity="1" fill-rule="nonzero"/><path fill="#ffeb24" d="M 50.34375 6.433594 L 50.34375 13.9375 L 47.125 13.9375 L 47.125 17.511719 L 43.910156 17.511719 L 43.910156 20.367188 L 39.625 20.367188 L 39.625 27.515625 L 36.40625 27.515625 L 36.40625 34.300781 L 33.191406 34.300781 L 33.191406 23.941406 L 36.40625 23.941406 L 36.40625 17.152344 L 39.625 17.152344 L 39.625 13.9375 L 43.910156 13.9375 L 43.910156 10.007812 L 47.125 10.007812 L 47.125 6.433594 L 50.34375 6.433594 " fill-opacity="1" fill-rule="nonzero"/><path fill="#ffeb24" d="M 49.269531 82.894531 L 49.269531 90.039062 L 46.054688 90.039062 L 46.054688 86.464844 L 42.839844 86.464844 L 42.839844 79.320312 L 46.054688 79.320312 L 46.054688 82.894531 L 49.269531 82.894531 " fill-opacity="1" fill-rule="nonzero"/><path fill="#ffeb24" d="M 42.839844 79.320312 L 42.839844 79.675781 L 39.625 79.675781 L 39.625 75.390625 L 36.40625 75.390625 L 36.40625 68.601562 L 39.625 68.601562 L 39.625 72.175781 L 42.839844 72.175781 L 42.839844 79.320312 " fill-opacity="1" fill-rule="nonzero"/><g clip-path="url(#e26dc761ec)"><path fill="#ffeb24" d="M 36.40625 68.601562 L 36.40625 69.671875 L 33.191406 69.671875 L 33.191406 62.171875 L 29.976562 62.171875 L 29.976562 33.945312 L 33.191406 33.945312 L 33.191406 58.242188 L 36.40625 58.242188 L 36.40625 68.601562 " fill-opacity="1" fill-rule="nonzero"/></g><g clip-path="url(#822af65ba3)"><path fill="#100f0d" d="M 94.289062 124.335938 L 94.289062 106.832031 L 55.703125 106.832031 L 55.703125 124.335938 L 60.703125 124.335938 L 60.703125 127.554688 L 64.632812 127.554688 L 64.632812 130.769531 L 68.5625 130.769531 L 68.5625 133.984375 L 81.425781 133.984375 L 81.425781 130.769531 L 85.355469 130.769531 L 85.355469 127.554688 L 89.285156 127.554688 L 89.285156 124.335938 Z M 97.503906 104.6875 L 97.503906 127.554688 L 92.859375 127.554688 L 92.859375 130.769531 L 88.929688 130.769531 L 88.929688 133.984375 L 85 133.984375 L 85 137.199219 L 64.992188 137.199219 L 64.992188 133.984375 L 61.0625 133.984375 L 61.0625 130.769531 L 57.128906 130.769531 L 57.128906 127.554688 L 52.484375 127.554688 L 52.484375 104.6875 L 54.628906 104.6875 L 54.628906 103.617188 L 95.359375 103.617188 L 95.359375 104.6875 L 97.503906 104.6875 " fill-opacity="1" fill-rule="nonzero"/></g><path fill="#020a0a" d="M 94.289062 106.832031 L 94.289062 124.335938 L 89.285156 124.335938 L 89.285156 127.554688 L 85.355469 127.554688 L 85.355469 130.769531 L 81.425781 130.769531 L 81.425781 133.984375 L 68.5625 133.984375 L 68.5625 130.769531 L 64.632812 130.769531 L 64.632812 127.554688 L 60.703125 127.554688 L 60.703125 124.335938 L 55.703125 124.335938 L 55.703125 106.832031 L 94.289062 106.832031 " fill-opacity="1" fill-rule="nonzero"/></svg>